<svg width="1280" height="640" viewBox="0 0 1280 640" xmlns="http://www.w3.org/2000/svg">
  <defs>
    <linearGradient id="bgGrad" x1="0%" y1="0%" x2="100%" y2="100%">
      <stop offset="0%" style="stop-color:#0f172a;stop-opacity:1" />
      <stop offset="50%" style="stop-color:#1e293b;stop-opacity:1" />
      <stop offset="100%" style="stop-color:#0f172a;stop-opacity:1" />
    </linearGradient>
    <linearGradient id="accentGrad" x1="0%" y1="0%" x2="100%" y2="0%">
      <stop offset="0%" style="stop-color:#3b82f6;stop-opacity:1" />
      <stop offset="100%" style="stop-color:#8b5cf6;stop-opacity:1" />
    </linearGradient>
    <linearGradient id="textGrad" x1="0%" y1="0%" x2="100%" y2="0%">
      <stop offset="0%" style="stop-color:#60a5fa;stop-opacity:1" />
      <stop offset="100%" style="stop-color:#a78bfa;stop-opacity:1" />
    </linearGradient>
  </defs>

  <!-- Background -->
  <rect width="1280" height="640" fill="url(#bgGrad)"/>

  <!-- Grid pattern -->
  <g opacity="0.08" stroke="#60a5fa" stroke-width="1">
    <line x1="0" y1="160" x2="1280" y2="160"/>
    <line x1="0" y1="320" x2="1280" y2="320"/>
    <line x1="0" y1="480" x2="1280" y2="480"/>
    <line x1="320" y1="0" x2="320" y2="640"/>
    <line x1="640" y1="0" x2="640" y2="640"/>
    <line x1="960" y1="0" x2="960" y2="640"/>
  </g>

  <!-- Decorative calendar elements -->
  <g transform="translate(80, 140)" opacity="0.15">
    <rect width="200" height="200" rx="16" fill="none" stroke="#60a5fa" stroke-width="3"/>
    <rect y="0" width="200" height="50" rx="16" fill="#3b82f6"/>
    <circle cx="50" cy="110" r="15" fill="#60a5fa"/>
    <circle cx="100" cy="110" r="15" fill="#8b5cf6"/>
    <circle cx="150" cy="110" r="15" fill="#60a5fa"/>
    <rect x="30" y="150" width="140" height="20" rx="4" fill="#475569"/>
  </g>

  <g transform="translate(1000, 300)" opacity="0.15">
    <rect width="180" height="180" rx="16" fill="none" stroke="#a78bfa" stroke-width="3"/>
    <rect y="0" width="180" height="45" rx="16" fill="#8b5cf6"/>
    <rect x="20" y="70" width="60" height="10" rx="2" fill="#64748b"/>
    <rect x="20" y="95" width="100" height="10" rx="2" fill="#64748b"/>
    <rect x="20" y="120" width="80" height="10" rx="2" fill="#64748b"/>
    <rect x="20" y="145" width="120" height="10" rx="2" fill="#64748b"/>
  </g>

  <!-- Calendar Icon (main) -->
  <g transform="translate(180, 200)">
    <rect width="180" height="180" rx="20" fill="none" stroke="url(#accentGrad)" stroke-width="4"/>
    <rect y="0" width="180" height="45" rx="20" fill="url(#accentGrad)"/>
    <circle cx="45" cy="100" r="14" fill="#60a5fa"/>
    <circle cx="90" cy="100" r="14" fill="#a78bfa"/>
    <circle cx="135" cy="100" r="14" fill="#60a5fa"/>
    <rect x="30" y="135" width="120" height="16" rx="4" fill="#64748b"/>
  </g>

  <!-- Title -->
  <text x="420" y="270" font-family="system-ui, -apple-system, BlinkMacSystemFont, sans-serif" font-size="72" font-weight="700" fill="#f1f5f9">
    Taskflow
  </text>
  <text x="420" y="350" font-family="system-ui, -apple-system, BlinkMacSystemFont, sans-serif" font-size="56" font-weight="400" fill="#94a3b8">
    Calendar
  </text>

  <!-- Tagline -->
  <text x="420" y="420" font-family="system-ui, -apple-system, BlinkMacSystemFont, sans-serif" font-size="24" fill="#64748b">
    Full-Stack Task &amp; Calendar Management with NLP
  </text>

  <!-- Tech stack badges -->
  <g transform="translate(420, 470)">
    <rect x="0" y="0" width="100" height="36" rx="6" fill="#61dafb" opacity="0.2"/>
    <text x="50" y="24" font-family="system-ui" font-size="16" font-weight="600" text-anchor="middle" fill="#61dafb">React 19</text>

    <rect x="115" y="0" width="120" height="36" rx="6" fill="#3178c6" opacity="0.2"/>
    <text x="175" y="24" font-family="system-ui" font-size="16" font-weight="600" text-anchor="middle" fill="#60a5fa">TypeScript</text>

    <rect x="250" y="0" width="110" height="36" rx="6" fill="#336791" opacity="0.2"/>
    <text x="305" y="24" font-family="system-ui" font-size="16" font-weight="600" text-anchor="middle" fill="#60a5fa">PostgreSQL</text>

    <rect x="375" y="0" width="90" height="36" rx="6" fill="#000000" opacity="0.3"/>
    <text x="420" y="24" font-family="system-ui" font-size="16" font-weight="600" text-anchor="middle" fill="#f1f5f9">Vercel</text>

    <rect x="480" y="0" width="120" height="36" rx="6" fill="#38bdf8" opacity="0.2"/>
    <text x="540" y="24" font-family="system-ui" font-size="16" font-weight="600" text-anchor="middle" fill="#38bdf8">Tailwind v4</text>
  </g>

  <!-- Stats -->
  <g transform="translate(420, 540)">
    <text font-family="system-ui" font-size="18" fill="#94a3b8">
      <tspan fill="#60a5fa" font-weight="600">738</tspan> tests passing
      <tspan dx="30" fill="#a78bfa" font-weight="600">70%+</tspan> coverage
      <tspan dx="30" fill="#60a5fa" font-weight="600">180KB</tspan> optimized bundle
    </text>
  </g>

  <!-- Author -->
  <text x="1200" y="600" font-family="system-ui" font-size="16" fill="#475569" text-anchor="end">
    by Ayush Yadav
  </text>
</svg>
